<svg width="24" height="24" viewBox="0 0 24 24" fill="none" xmlns="http://www.w3.org/2000/svg">
<path fill-rule="evenodd" clip-rule="evenodd" d="M5.1667 10C5.1667 6.68629 7.85299 4 11.1667 4H12.8334C16.1471 4 18.8334 6.68629 18.8334 10V12.8731C18.8334 13.3121 18.8912 13.7491 19.0053 14.173L20.3049 19H3.69519L4.99478 14.173C5.10889 13.7491 5.1667 13.3121 5.1667 12.8731V10ZM11.1667 6C8.95756 6 7.1667 7.79086 7.1667 10V12.8731C7.1667 13.4876 7.08577 14.0995 6.92601 14.6929L6.30487 17H17.6952L17.0741 14.6929C16.9143 14.0995 16.8334 13.4876 16.8334 12.8731V10C16.8334 7.79086 15.0425 6 12.8334 6H11.1667Z" fill="#333333"/>
<path d="M10 3.5C10 2.67157 10.6716 2 11.5 2H12.5C13.3285 2 14 2.67157 14 3.5C14 4.32843 13.3285 5 12.5 5H11.5C10.6716 5 10 4.32843 10 3.5Z" fill="#333333"/>
<path d="M10 19.5C10 18.6716 10.6716 18 11.5 18H12.5C13.3285 18 14 18.6716 14 19.5C14 20.3284 13.3285 21 12.5 21H11.5C10.6716 21 10 20.3284 10 19.5Z" fill="#333333"/>
</svg>
