<svg width="24" height="24" viewBox="0 0 24 24" fill="none" xmlns="http://www.w3.org/2000/svg">
<path d="M5.77778 5H9.33333C9.76289 5 10.1111 5.34822 10.1111 5.77778V9.33333C10.1111 9.76289 9.76289 10.1111 9.33333 10.1111H5.77778C5.34822 10.1111 5 9.76289 5 9.33333V5.77778C5 5.34822 5.34822 5 5.77778 5ZM5.77778 13.8889H9.33333C9.76289 13.8889 10.1111 14.2371 10.1111 14.6667V18.2222C10.1111 18.6518 9.76289 19 9.33333 19H5.77778C5.34822 19 5 18.6518 5 18.2222V14.6667C5 14.2371 5.34822 13.8889 5.77778 13.8889ZM14.6667 13.8889H18.2222C18.6518 13.8889 19 14.2371 19 14.6667V18.2222C19 18.6518 18.6518 19 18.2222 19H14.6667C14.2371 19 13.8889 18.6518 13.8889 18.2222V14.6667C13.8889 14.2371 14.2371 13.8889 14.6667 13.8889ZM14.6667 5H18.2222C18.6518 5 19 5.34822 19 5.77778V9.33333C19 9.76289 18.6518 10.1111 18.2222 10.1111H14.6667C14.2371 10.1111 13.8889 9.76289 13.8889 9.33333V5.77778C13.8889 5.34822 14.2371 5 14.6667 5Z" stroke="#333333" stroke-width="2" stroke-linecap="round" stroke-linejoin="round"/>
</svg>
