<svg width="24" height="24" viewBox="0 0 24 24" fill="none" xmlns="http://www.w3.org/2000/svg">
<path fill-rule="evenodd" clip-rule="evenodd" d="M12 20C16.4179 20 20 16.4179 20 12C20 7.58211 16.4179 4 12 4C7.58211 4 4 7.58211 4 12C4 16.4179 7.58211 20 12 20ZM12 22C17.5225 22 22 17.5225 22 12C22 6.47754 17.5225 2 12 2C6.47754 2 2 6.47754 2 12C2 17.5225 6.47754 22 12 22Z" fill="#333333"/>
<path fill-rule="evenodd" clip-rule="evenodd" d="M12 8C10.8954 8 10 8.89543 10 10C10 10.5523 9.55228 11 9 11C8.44772 11 8 10.5523 8 10C8 7.79086 9.79086 6 12 6H12.2759C14.3327 6 16 7.66734 16 9.7241C16 10.8293 15.5091 11.8775 14.66 12.585L13.7196 13.3687C13.2636 13.7487 13 13.9064 13 14.5C13 15.0523 12.5523 15.5 12 15.5C11.4477 15.5 11 15.0523 11 14.5C11 13.3129 11.5273 12.5922 12.4393 11.8322L13.3796 11.0486C13.7727 10.721 14 10.2358 14 9.7241C14 8.77191 13.2281 8 12.2759 8H12Z" fill="#333333"/>
<path d="M11 18C11 17.4477 11.4477 17 12 17C12.5523 17 13 17.4477 13 18C13 18.5523 12.5523 19 12 19C11.4477 19 11 18.5523 11 18Z" fill="#333333"/>
</svg>
