<svg width="24" height="24" viewBox="0 0 24 24" fill="none" xmlns="http://www.w3.org/2000/svg">
<path d="M15.1429 7H10V9H15.1429V7Z" fill="#333333"/>
<path d="M18 11H10V13H18V11Z" fill="#333333"/>
<path d="M10 15H16.5714V17H10V15Z" fill="#333333"/>
<path d="M8 9V7H6V9H8Z" fill="#333333"/>
<path d="M8 11V13H6V11H8Z" fill="#333333"/>
<path d="M8 17V15H6V17H8Z" fill="#333333"/>
<path fill-rule="evenodd" clip-rule="evenodd" d="M7 2C4.23858 2 2 4.23858 2 7V17C2 19.7614 4.23858 22 7 22H17C19.7614 22 22 19.7614 22 17V7C22 4.23858 19.7614 2 17 2H7ZM17 4H7C5.34315 4 4 5.34315 4 7V17C4 18.6569 5.34315 20 7 20H17C18.6569 20 20 18.6569 20 17V7C20 5.34315 18.6569 4 17 4Z" fill="#333333"/>
</svg>
