<svg width="24" height="24" viewBox="0 0 24 24" fill="none" xmlns="http://www.w3.org/2000/svg">
<path fill-rule="evenodd" clip-rule="evenodd" d="M9 2H15V4.58203C15.6952 4.86342 16.3413 5.23935 16.9224 5.69341L19.1607 4.40113L22.1607 9.59728L19.9232 10.8891C19.9739 11.2527 20 11.6236 20 12C20 12.3759 19.9739 12.7463 19.9234 13.1094L22.1607 14.4011L19.1607 19.5973L16.9236 18.3057C16.3422 18.7601 15.6957 19.1364 15 19.418V22H9V19.418C8.30444 19.1365 7.65809 18.7603 7.07679 18.306L4.84021 19.5973L1.84021 14.4011L4.07662 13.1099C4.02607 12.7466 4 12.376 4 12C4 11.6235 4.02614 11.2524 4.07682 10.8886L1.84021 9.59729L4.84021 4.40113L7.07796 5.6931C7.65896 5.23918 8.30491 4.86335 9 4.58203V2ZM7.37697 8.17513L5.57226 7.13318L4.57226 8.86523L6.37542 9.90629C6.13267 10.5581 6 11.2636 6 12C6 12.7359 6.13249 13.4409 6.37493 14.0924L4.57226 15.1332L5.57226 16.8652L7.37609 15.8238C8.27509 16.9097 9.54928 17.6737 11 17.917V20H13V17.917C14.4509 17.6736 15.7252 16.9095 16.6242 15.8234L18.4287 16.8652L19.4287 15.1332L17.6252 14.092C17.8676 13.4406 18 12.7358 18 12C18 11.2637 17.8674 10.5585 17.6247 9.90673L19.4287 8.86523L18.4287 7.13318L16.6233 8.1755C15.7243 7.08998 14.4504 6.32629 13 6.08296V4H11V6.08296C9.54976 6.32626 8.27593 7.08981 7.37697 8.17513Z" fill="#333333"/>
<path fill-rule="evenodd" clip-rule="evenodd" d="M12 14C13.1046 14 14 13.1046 14 12C14 10.8954 13.1046 10 12 10C10.8954 10 10 10.8954 10 12C10 13.1046 10.8954 14 12 14ZM16 12C16 14.2091 14.2091 16 12 16C9.79086 16 8 14.2091 8 12C8 9.79086 9.79086 8 12 8C14.2091 8 16 9.79086 16 12Z" fill="#333333"/>
</svg>
